<svg width="400" height="300" viewBox="0 0 400 300" fill="none" xmlns="http://www.w3.org/2000/svg">
  <!-- Background -->
  <rect width="400" height="300" fill="#F6F7FB"/>
  
  <!-- Floor -->
  <rect x="0" y="250" width="400" height="50" fill="#E5E7EB"/>
  
  <!-- Table 1 -->
  <rect x="50" y="80" width="80" height="40" fill="#8B5CF6" rx="8"/>
  <circle cx="70" cy="100" r="8" fill="#F3F4F6"/>
  <circle cx="90" cy="100" r="8" fill="#F3F4F6"/>
  <circle cx="110" cy="100" r="8" fill="#F3F4F6"/>
  <circle cx="70" cy="120" r="8" fill="#F3F4F6"/>
  <circle cx="90" cy="120" r="8" fill="#F3F4F6"/>
  <circle cx="110" cy="120" r="8" fill="#F3F4F6"/>
  
  <!-- Table 2 -->
  <rect x="200" y="60" width="80" height="40" fill="#3B82F6" rx="8"/>
  <circle cx="220" cy="80" r="8" fill="#F3F4F6"/>
  <circle cx="240" cy="80" r="8" fill="#F3F4F6"/>
  <circle cx="260" cy="80" r="8" fill="#F3F4F6"/>
  <circle cx="220" cy="100" r="8" fill="#F3F4F6"/>
  <circle cx="240" cy="100" r="8" fill="#F3F4F6"/>
  <circle cx="260" cy="100" r="8" fill="#F3F4F6"/>
  
  <!-- Table 3 -->
  <rect x="100" y="180" width="80" height="40" fill="#10B981" rx="8"/>
  <circle cx="120" cy="200" r="8" fill="#F3F4F6"/>
  <circle cx="140" cy="200" r="8" fill="#F3F4F6"/>
  <circle cx="160" cy="200" r="8" fill="#F3F4F6"/>
  <circle cx="120" cy="220" r="8" fill="#F3F4F6"/>
  <circle cx="140" cy="220" r="8" fill="#F3F4F6"/>
  <circle cx="160" cy="220" r="8" fill="#F3F4F6"/>
  
  <!-- Table 4 -->
  <rect x="250" y="160" width="80" height="40" fill="#F59E0B" rx="8"/>
  <circle cx="270" cy="180" r="8" fill="#F3F4F6"/>
  <circle cx="290" cy="180" r="8" fill="#F3F4F6"/>
  <circle cx="310" cy="180" r="8" fill="#F3F4F6"/>
  <circle cx="270" cy="200" r="8" fill="#F3F4F6"/>
  <circle cx="290" cy="200" r="8" fill="#F3F4F6"/>
  <circle cx="310" cy="200" r="8" fill="#F3F4F6"/>
  
  <!-- Decorative elements -->
  <circle cx="50" cy="50" r="3" fill="#8B5CF6" opacity="0.3"/>
  <circle cx="350" cy="70" r="3" fill="#3B82F6" opacity="0.3"/>
  <circle cx="80" cy="30" r="3" fill="#10B981" opacity="0.3"/>
  <circle cx="320" cy="40" r="3" fill="#F59E0B" opacity="0.3"/>
  
  <!-- Title -->
  <text x="200" y="30" text-anchor="middle" font-family="Inter, sans-serif" font-size="16" font-weight="600" fill="#374151">
    Event Seating Layout
  </text>
</svg>
